<?xml version="1.0" encoding="UTF-8"?>
<svg version="1.1" xmlns="http://www.w3.org/2000/svg" width="1385" height="668">
<path d="M0 0 C1.3983442 0.10447997 2.79506937 0.23221998 4.18968201 0.3782959 C5.32029855 0.47173153 5.32029855 0.47173153 6.47375584 0.56705475 C8.85570977 0.76825477 11.23396707 0.99763981 13.61326599 1.22790527 C15.06863872 1.3533439 16.52419334 1.47669269 17.97993469 1.59777832 C22.45305205 1.97616272 26.9217165 2.39665126 31.39060974 2.82165527 C33.02060615 2.97491647 34.65061641 3.12803032 36.28063965 3.28100586 C39.65464739 3.59837888 43.0284356 3.91797003 46.40208435 4.23913574 C50.72914194 4.65080998 55.05678027 5.05600099 59.38460445 5.45952606 C62.73134021 5.77240319 66.07771689 6.08899184 69.42399788 6.4066925 C71.02151928 6.55784048 72.61915922 6.70774098 74.21691704 6.85636902 C76.43266975 7.06296696 78.64787983 7.2746385 80.86302185 7.4876709 C82.1219072 7.60678833 83.38079254 7.72590576 84.67782593 7.84863281 C87.61326599 8.22790527 87.61326599 8.22790527 89.61326599 9.22790527 C89.76219768 23.98412581 89.13582321 38.72245461 88.43469143 53.45890427 C88.21129161 58.1874677 88.01481876 62.91385604 87.88108826 67.64587402 C86.81706446 104.20416819 86.81706446 104.20416819 77.33592224 113.30603027 C75.45362193 114.88408362 73.54294396 116.3369095 71.53065491 117.74462891 C68.05775803 120.43123349 65.40969126 123.86849816 62.61326599 127.22790527 C60.80065754 129.24765323 58.95503725 131.23445874 57.11326599 133.22790527 C53.46812186 137.18559664 49.87410787 141.17969701 46.34764099 145.24353027 C42.81825885 149.28165218 39.20692373 153.24705208 35.61326599 157.22790527 C34.1129792 158.89431378 32.61297727 160.5609788 31.11326599 162.22790527 C22.11326599 172.22790527 13.11326599 182.22790527 4.11326599 192.22790527 C3.37334412 193.05032715 2.63342224 193.87274902 1.87107849 194.72009277 C0.34618355 196.41383422 -1.17988803 198.10651696 -2.70704651 199.79821777 C-6.08586109 203.54354783 -9.45569366 207.29308735 -12.76173401 211.10290527 C-15.745903 214.53122965 -18.80870704 217.88402982 -21.88673401 221.22790527 C-27.89229997 227.75498578 -33.74231715 234.38618787 -39.38673401 241.22790527 C-37.7706074 245.15144963 -35.07342472 247.94186973 -32.19923401 250.97790527 C-31.19593891 252.05408447 -30.19333371 253.13090725 -29.19142151 254.20837402 C-28.70641174 254.72834961 -28.22140198 255.2483252 -27.72169495 255.78405762 C-26.05298923 257.5888721 -24.4327028 259.43181574 -22.82423401 261.29040527 C-20.05872981 264.48035136 -17.23197629 267.60883516 -14.38673401 270.72790527 C-11.54149173 273.84697538 -8.71473821 276.97545919 -5.94923401 280.16540527 C-2.51904825 284.11457895 1.02330117 287.95812832 4.56614685 291.80578613 C7.67925898 295.19253146 10.72578682 298.62696776 13.73826599 302.10290527 C16.15876741 304.84614021 18.63530777 307.5367177 21.11326599 310.22790527 C24.75743539 314.1865025 28.35240379 318.17967359 31.87889099 322.24353027 C33.89425362 324.54939562 35.93880475 326.82729659 37.98826599 329.10290527 C38.73978943 329.93821777 39.49131287 330.77353027 40.26560974 331.63415527 C41.87491424 333.41215559 43.49255273 335.18263783 45.11717224 336.94665527 C45.92025818 337.82321777 46.72334412 338.69978027 47.55076599 339.60290527 C48.28166443 340.39438965 49.01256287 341.18587402 49.76560974 342.00134277 C51.61326599 344.22790527 51.61326599 344.22790527 53.61326599 348.22790527 C22.92326599 348.22790527 -7.76673401 348.22790527 -39.38673401 348.22790527 C-39.38673401 351.52790527 -39.38673401 354.82790527 -39.38673401 358.22790527 C-39.55483594 360.6531977 -39.76153255 363.07623815 -40.01344299 365.4942627 C-40.08011169 366.14772171 -40.1467804 366.80118073 -40.21546936 367.47444153 C-40.43302688 369.59462536 -40.6577857 371.71397274 -40.88282776 373.83337402 C-41.03778166 375.32684678 -41.19232016 376.8203627 -41.34646606 378.31391907 C-41.66872913 381.42644839 -41.99426694 384.53860999 -42.32252502 387.6505127 C-42.74166199 391.62415545 -43.15516431 395.59835743 -43.56654263 399.57281017 C-43.96175741 403.38902774 -44.35964638 407.20496503 -44.75782776 411.02087402 C-44.83267332 411.74002676 -44.90751888 412.4591795 -44.98463249 413.20012474 C-45.19850817 415.25014977 -45.41426751 417.29996761 -45.63063049 419.34973145 C-45.75276413 420.51203781 -45.87489777 421.67434418 -46.00073242 422.87187195 C-46.39902118 426.33473426 -46.87822684 429.77965048 -47.38673401 433.22790527 C-55.73086832 426.51631898 -62.54069876 418.38088924 -69.54298401 410.32165527 C-72.64433635 406.79978058 -75.82186734 403.34713506 -78.98439026 399.88024902 C-80.95615245 397.70329532 -82.90038738 395.50951853 -84.82423401 393.29040527 C-87.78556911 389.88101947 -90.82825887 386.54996217 -93.88673401 383.22790527 C-97.53087729 379.26928342 -101.12587118 375.27613767 -104.65235901 371.21228027 C-108.96525742 366.27770282 -113.3860621 361.43711627 -117.78517151 356.57946777 C-121.74495288 352.19871297 -125.6536971 347.803886 -129.38673401 343.22790527 C-132.49086161 344.58218989 -134.30149125 345.99924781 -136.44923401 348.60290527 C-139.5116421 352.22510839 -142.66835735 355.74438292 -145.88673401 359.22790527 C-149.53163188 363.18582036 -153.12588812 367.17969239 -156.65235901 371.24353027 C-160.18174115 375.28165218 -163.79307627 379.24705208 -167.38673401 383.22790527 C-168.8870208 384.89431378 -170.38702273 386.5609788 -171.88673401 388.22790527 C-185.38673401 403.22790527 -185.38673401 403.22790527 -198.88673401 418.22790527 C-199.62665588 419.05032715 -200.36657776 419.87274902 -201.12892151 420.72009277 C-202.65381645 422.41383422 -204.17988803 424.10651696 -205.70704651 425.79821777 C-209.08586109 429.54354783 -212.45569366 433.29308735 -215.76173401 437.10290527 C-219.21524962 441.07043251 -222.77677341 444.93638168 -226.33937073 448.80554199 C-229.45134418 452.19100161 -232.49702189 455.6238761 -235.50782776 459.09899902 C-238.41727224 462.39556294 -241.40676705 465.61865792 -244.38819885 468.84997559 C-246.99029838 471.67791087 -249.53697839 474.53801487 -252.01173401 477.47790527 C-252.79548401 478.38540527 -253.57923401 479.29290527 -254.38673401 480.22790527 C-254.71673401 480.22790527 -255.04673401 480.22790527 -255.38673401 480.22790527 C-255.50053799 447.54113219 -255.40390906 414.89996061 -254.38673401 382.22790527 C-255.73618607 382.23123619 -255.73618607 382.23123619 -257.11289978 382.2346344 C-265.67208709 382.25483373 -274.23126618 382.26997819 -282.79047203 382.27971745 C-287.1887808 382.2848931 -291.58706956 382.29189163 -295.98536682 382.30334473 C-300.2453442 382.31436575 -304.50530257 382.32022192 -308.76529312 382.32278252 C-310.37483137 382.32460272 -311.98436882 382.32815503 -313.59389877 382.33363533 C-324.89326378 382.37050996 -336.11118644 381.96384757 -347.38673401 381.22790527 C-340.90316452 373.6373849 -334.33786402 366.14399327 -327.57984924 358.79602051 C-323.1451725 353.97301565 -318.76103322 349.10572094 -314.38673401 344.22790527 C-309.11728256 338.35189826 -303.81667753 332.50645085 -298.47755432 326.69372559 C-294.07989739 321.90215676 -289.72881723 317.06979663 -285.38673401 312.22790527 C-280.54152308 306.82497222 -275.67464803 301.44426624 -270.76173401 296.10290527 C-267.7845512 292.86573311 -264.82720545 289.61652799 -261.94923401 286.29040527 C-258.36871089 282.16035343 -254.65093639 278.16186457 -250.9365387 274.15270996 C-246.37074218 269.22142129 -241.87119154 264.23324353 -237.38673401 259.22790527 C-235.8452076 257.51944538 -234.30354047 255.81111244 -232.76173401 254.10290527 C-228.92940931 249.84626342 -225.14295442 245.551786 -221.38673401 241.22790527 C-228.59959436 232.78358096 -235.94375362 224.47013188 -243.38673401 216.22790527 C-251.95846696 206.73571777 -251.95846696 206.73571777 -255.76173401 202.35290527 C-258.74590087 198.92458335 -261.80861885 195.57169727 -264.88673401 192.22790527 C-268.53085117 188.26925878 -272.12587056 184.27613839 -275.65235901 180.21228027 C-279.18172866 176.17417265 -282.79244032 172.20816339 -286.38673401 168.22790527 C-291.12763831 162.97791058 -295.84714911 157.71475176 -300.48829651 152.37634277 C-303.69035614 148.75261273 -306.97407542 145.20275204 -310.25001526 141.64587402 C-314.26863587 137.09829421 -314.67774075 134.12315943 -314.58009338 128.2713623 C-314.5728701 127.47394686 -314.56564682 126.67653141 -314.55820465 125.85495186 C-314.43427075 116.73125273 -313.8790273 107.63605171 -313.29298401 98.53259277 C-313.18039897 96.71988879 -313.06830746 94.90715409 -312.9566803 93.09439087 C-312.66564685 88.38923091 -312.36804217 83.68451038 -312.06892395 78.9798584 C-311.7632287 74.15263854 -311.46394745 69.32502115 -311.16407776 64.49743652 C-310.57779991 55.07386646 -309.98455825 45.65074941 -309.38673401 36.22790527 C-294.38191172 35.86128367 -279.33209282 37.8563567 -264.40992737 39.26135254 C-260.59872611 39.61839762 -256.78656576 39.95772207 -252.97242737 40.28186035 C-248.34150688 40.67554599 -243.71436515 41.09997047 -239.08823204 41.54630852 C-237.3338221 41.7104524 -235.57837781 41.86392275 -233.82206154 42.00622749 C-218.41330516 43.26887476 -218.41330516 43.26887476 -213.87501526 47.7520752 C-212.46534729 49.58232117 -212.46534729 49.58232117 -211.38673401 51.22790527 C-210.7718512 51.90337402 -210.15696838 52.57884277 -209.52345276 53.27478027 C-209.04521057 53.83681152 -208.56696838 54.39884277 -208.07423401 54.97790527 C-205.22945149 58.27657444 -202.32374108 61.51097166 -199.38673401 64.72790527 C-196.54149173 67.84697538 -193.71473821 70.97545919 -190.94923401 74.16540527 C-187.51904825 78.11457895 -183.97669883 81.95812832 -180.43385315 85.80578613 C-177.32074102 89.19253146 -174.27421318 92.62696776 -171.26173401 96.10290527 C-168.84123259 98.84614021 -166.36469223 101.5367177 -163.88673401 104.22790527 C-160.24256461 108.1865025 -156.64759621 112.17967359 -153.12110901 116.24353027 C-150.35903051 119.40374621 -147.54269426 122.51466678 -144.73048401 125.63024902 C-143.12337931 127.41145673 -141.51936733 129.1954583 -139.91798401 130.98181152 C-138.72689026 132.31019043 -138.72689026 132.31019043 -137.51173401 133.66540527 C-136.79243713 134.46849121 -136.07314026 135.27157715 -135.33204651 136.09899902 C-133.72435344 137.85842216 -132.09016913 139.56196715 -130.38673401 141.22790527 C-130.0090387 140.78962402 -129.63134338 140.35134277 -129.24220276 139.89978027 C-125.0996527 135.12663126 -120.85948624 130.44902777 -116.58131409 125.79772949 C-112.14630892 120.97400783 -107.76153481 116.10628027 -103.38673401 111.22790527 C-98.11728256 105.35189826 -92.81667753 99.50645085 -87.47755432 93.69372559 C-83.07989739 88.90215676 -78.72881723 84.06979663 -74.38673401 79.22790527 C-69.54152308 73.82497222 -64.67464803 68.44426624 -59.76173401 63.10290527 C-56.7845512 59.86573311 -53.82720545 56.61652799 -50.94923401 53.29040527 C-47.36871089 49.16035343 -43.65093639 45.16186457 -39.9365387 41.15270996 C-35.37076759 36.22144873 -30.86928738 31.23492559 -26.38673401 26.22790527 C-18.40609542 17.32697683 -18.40609542 17.32697683 -14.48048401 13.07165527 C-13.7406427 12.26897217 -13.7406427 12.26897217 -12.9858551 11.45007324 C-12.02691682 10.41109109 -11.06638737 9.3735745 -10.10401917 8.33776855 C-7.38086578 5.40025439 -7.38086578 5.40025439 -5.21133423 2.05200195 C-3.38673401 0.22790527 -3.38673401 0.22790527 0 0 Z " fill="#01D25E" transform="translate(823.3867340087891,91.7720947265625)"/>
<path d="M0 0 C15.70705774 15.40233528 27.64219373 34.29039204 39 53 C39.47904785 53.78761719 39.9580957 54.57523438 40.45166016 55.38671875 C54.86114819 79.30012968 66.73049938 104.67717032 76 131 C76.43747559 132.22589844 76.43747559 132.22589844 76.88378906 133.4765625 C100.42021015 200.31886546 101.03298532 275.81397266 72 341 C71.62649414 341.84578613 71.25298828 342.69157227 70.86816406 343.56298828 C62.00936626 363.41598935 50.82527768 381.48724141 38 399 C37.19889713 400.11174749 36.39809587 401.22371239 35.59765625 402.3359375 C31.23842241 408.2963662 26.59507241 413.83759924 21.5546875 419.234375 C19.67421834 421.27011226 17.85592851 423.32191232 16.05078125 425.421875 C10.92001288 431.29154044 5.59030921 436.96607865 0.16821289 442.56640625 C-1.07184429 443.85850635 -2.30007971 445.16205384 -3.51635742 446.4765625 C-5.298764 448.39950268 -7.11817239 450.27970781 -8.94921875 452.15625 C-9.47778976 452.74361938 -10.00636078 453.33098877 -10.5509491 453.93615723 C-13.91810836 457.28876327 -16.40910044 458.37346362 -21.17797852 458.44726562 C-23.45388816 458.33076995 -25.72799349 458.17698134 -28 458 C-29.47393498 457.9120197 -30.94804618 457.82696045 -32.42228699 457.7442627 C-37.68586476 457.43682726 -42.9440131 457.06264819 -48.203125 456.6875 C-50.13651043 456.55261658 -52.06992157 456.41810124 -54.00335693 456.28393555 C-59.05378959 455.93249348 -64.10386088 455.57610282 -69.15386963 455.21862793 C-74.32242012 454.85365961 -79.49130175 454.49344505 -84.66015625 454.1328125 C-94.77376439 453.42648799 -104.88699661 452.71492733 -115 452 C-115.4660835 434.89415715 -113.43571568 417.73741122 -112.02148438 400.7097168 C-111.66899091 396.44079246 -111.33662687 392.17101108 -111.02148438 387.89916992 C-110.63835435 382.70825114 -110.21990274 377.52130015 -109.776474 372.33519554 C-109.61434484 370.37032269 -109.46444102 368.40439877 -109.32740784 366.43761635 C-108.0277721 348.02947993 -108.0277721 348.02947993 -100.93557739 341.62532043 C-99.97746658 340.82078682 -99.97746658 340.82078682 -99 340 C-97.65574196 338.22538865 -96.34711115 336.42208217 -95.10546875 334.57421875 C-94.1455603 333.14783081 -94.1455603 333.14783081 -93.16625977 331.69262695 C-92.18677368 330.20508911 -92.18677368 330.20508911 -91.1875 328.6875 C-90.14710571 327.11198364 -90.14710571 327.11198364 -89.08569336 325.50463867 C-60.96668589 282.42614998 -41.20725657 228.43486135 -51.90234375 176.42578125 C-59.95825633 142.30164342 -79.21351417 108.79813421 -106.50390625 86.33984375 C-108 85 -108 85 -109 83 C-90.48307219 83.63968603 -71.9947391 84.62984055 -53.50073242 85.72949219 C-49.65403407 85.95815617 -45.80708233 86.18221483 -41.96004391 86.40507507 C-38.95122613 86.57991808 -35.9425594 86.75725796 -32.93393135 86.93533325 C-31.51434519 87.01904149 -30.09471271 87.10196837 -28.67503166 87.18405151 C-26.70109186 87.29852951 -24.7273717 87.41677544 -22.75366211 87.53515625 C-21.63881943 87.600979 -20.52397675 87.66680176 -19.37535095 87.73461914 C-15.56026598 88.03457329 -11.79387878 88.50062361 -8 89 C-7.94376465 87.9689061 -7.8875293 86.93781219 -7.82958984 85.87547302 C-7.25546005 75.60025213 -6.50332844 65.35096336 -5.625 55.09765625 C-5.49422829 53.55733364 -5.36353328 52.01700452 -5.23291016 50.47666931 C-4.96217591 47.29103252 -4.68967676 44.10555265 -4.41601562 40.92016602 C-4.06533967 36.83516202 -3.72058435 32.74968068 -3.37722778 28.66405582 C-3.11067261 25.50263856 -2.84039399 22.34154794 -2.56903076 19.18054008 C-2.44013648 17.67232828 -2.31256338 16.16400297 -2.18634033 14.65556526 C-2.01093199 12.56437344 -1.83036156 10.47369026 -1.6484375 8.38305664 C-1.49640869 6.60131798 -1.49640869 6.60131798 -1.34130859 4.78358459 C-1 2 -1 2 0 0 Z " fill="#01D25E" transform="translate(1290,114)"/>
<path d="M0 0 C3.50658118 2.27257729 6.77328323 4.54885466 9.84375 7.3828125 C13.83498837 10.93668082 18.03593529 13.94676676 22.5 16.875 C23.28189697 17.3903833 24.06379395 17.9057666 24.86938477 18.43676758 C32.38338483 23.33548556 40.04585993 27.85538571 48 32 C49.06758545 32.5583252 49.06758545 32.5583252 50.15673828 33.12792969 C73.25429089 45.03451251 98.19217527 52.2636793 124 55 C125.051875 55.11214844 126.10375 55.22429688 127.1875 55.33984375 C150.96579156 57.50961286 174.95014542 55.19192689 198 49 C198.8677002 48.76829102 199.73540039 48.53658203 200.62939453 48.29785156 C216.73150568 43.90405337 233.01282683 38.37272838 247.546875 30.02734375 C252.94214814 26.94328897 256.83709159 25.69077039 263.1081543 25.77172852 C264.14609524 25.78466745 264.14609524 25.78466745 265.20500469 25.79786777 C274.09787867 25.96069618 282.96447622 26.6253209 291.83203125 27.27734375 C293.68524986 27.40985401 295.53849652 27.54197238 297.39176941 27.67372131 C301.23841753 27.9484093 305.08475865 28.2269642 308.9309082 28.50854492 C313.86210227 28.86935899 318.79387092 29.22149241 323.72588062 29.57096004 C327.5358374 29.84165139 331.34550726 30.11621311 335.15509605 30.39203072 C336.97511938 30.52345355 338.79521963 30.65381554 340.6153965 30.78309441 C343.14469315 30.96344548 345.67356827 31.14885117 348.20239258 31.33569336 C348.95193207 31.38820251 349.70147156 31.44071167 350.47372437 31.49481201 C353.50826888 31.72361753 356.09852472 32.03284157 359 33 C359.23218787 44.18750638 359.40962656 55.3744354 359.51812172 66.56386471 C359.57020833 71.76032329 359.64079463 76.95512804 359.75439453 82.15063477 C359.86343599 87.16934387 359.92292029 92.18646758 359.94877243 97.20627022 C359.96718262 99.11656206 360.00313713 101.02677163 360.05730057 102.9363842 C360.46391932 117.87290451 360.46391932 117.87290451 356.85127258 123.12213135 C354.34176891 125.41549511 351.88874557 127.22014189 349 129 C347.62694746 130.02957301 346.25950601 131.0667569 344.90234375 132.1171875 C343.58642589 133.04459472 342.2646766 133.96377761 340.9375 134.875 C340.20982422 135.379104 339.48214844 135.88320801 338.73242188 136.40258789 C336.49451814 137.94439947 334.24783079 139.47271085 332 141 C331.3311377 141.46164551 330.66227539 141.92329102 329.97314453 142.39892578 C286.01018654 172.64866752 229.10017686 192.10262181 175.4453125 192.16796875 C173.97286575 192.17296135 173.97286575 192.17296135 172.47067261 192.17805481 C170.40167707 192.18308754 168.33267352 192.18546427 166.26367188 192.18530273 C163.16782473 192.18747002 160.07234594 192.2056123 156.9765625 192.22460938 C139.66151847 192.27479114 122.73569823 190.98444454 105.6875 187.875 C103.94279419 187.55740723 103.94279419 187.55740723 102.1628418 187.23339844 C29.97412241 173.57827919 -35.5093718 138.32614124 -93.06835938 93.484375 C-95.85317494 91.34437517 -98.68617797 89.27037124 -101.52246094 87.19921875 C-102.01004883 86.80347656 -102.49763672 86.40773438 -103 86 C-103 85.67 -103 85.34 -103 85 C-72.31 85 -41.62 85 -10 85 C-8.68 73.12 -7.36 61.24 -6 49 C-4.93284782 40.08095747 -3.85670827 31.16405757 -2.75 22.25 C-2.47896885 20.05340982 -2.2081358 17.85679518 -1.9375 15.66015625 C-1.29391661 10.43982354 -0.64777108 5.21981465 0 0 Z " fill="#0C2B3F" transform="translate(193,463)"/>
<path d="M0 0 C16.13201464 -0.41938865 32.28596964 1.31896006 48.34976196 2.61108971 C53.71407468 3.04245356 59.07844634 3.45613087 64.44726562 3.82763672 C69.67781113 4.18990451 74.90319992 4.59648577 80.12799072 5.03377151 C82.10414248 5.19180117 84.0815786 5.33461118 86.05999756 5.46113205 C99.36472817 6.32680441 106.61511784 8.31310204 116 18 C118.51793815 19.85047814 121.1254246 21.47086127 123.8125 23.0625 C124.48788818 23.47185791 125.16327637 23.88121582 125.85913086 24.30297852 C127.24167297 25.13972518 128.62648557 25.9727332 130.01367188 26.80175781 C131.874675 27.92439834 133.71286714 29.07612077 135.546875 30.2421875 C151.58500474 40.33404794 168.92520807 48.33911789 187 54 C187.69254883 54.22381348 188.38509766 54.44762695 189.09863281 54.67822266 C205.1439268 59.84379114 221.67413829 63.06303093 238.56640625 63.23828125 C239.35455719 63.2480751 240.14270813 63.25786896 240.95474243 63.26795959 C266.22481919 63.51726901 288.92995275 61.05787765 313 53 C314.82337891 52.41605469 314.82337891 52.41605469 316.68359375 51.8203125 C334.13375136 45.96997064 349.75278132 37.16481245 365 27 C364.41382259 39.67274245 363.53393543 52.28583565 362.37109375 64.91796875 C362.21527114 66.63956445 362.05976518 68.36118883 361.90455627 70.08283997 C361.50163468 74.54300315 361.09450927 79.00277216 360.68640137 83.46246338 C360.26813103 88.04179534 359.85398353 92.62150012 359.43945312 97.20117188 C358.63025782 106.13447688 357.81660555 115.06736954 357 124 C358.09707275 124.05664322 359.19414551 124.11328644 360.32446289 124.17164612 C371.04348567 124.73813155 381.73919946 125.46903946 392.4375 126.33984375 C393.21284088 126.40262575 393.98818176 126.46540775 394.78701782 126.53009224 C398.86149658 126.86032271 402.93572516 127.19346015 407.00976562 127.52905273 C411.20771348 127.87420955 415.40645846 128.20850284 419.60545349 128.54064083 C422.8554899 128.79970897 426.10483212 129.06678255 429.35403442 129.336092 C430.90397568 129.46312579 432.45417129 129.58709495 434.00460815 129.70792961 C436.15361242 129.87612576 438.30138024 130.0556362 440.44921875 130.23803711 C441.66955811 130.33716904 442.88989746 130.43630096 444.1472168 130.53843689 C447 131 447 131 449 133 C435.24273913 141.15482908 421.26920065 148.77814197 407 156 C406.21753906 156.39928711 405.43507813 156.79857422 404.62890625 157.20996094 C321.56461893 199.28954058 224.13064769 209.17869307 135.38525391 180.16552734 C90.76748437 164.80383459 46.98777299 140.49726379 12.80078125 107.6875 C10.08551159 105.08205296 7.31055597 102.56442976 4.5 100.0625 C3.31277344 98.97388672 3.31277344 98.97388672 2.1015625 97.86328125 C-0.10033718 95.84774437 -0.10033718 95.84774437 -3.125 93.75 C-8.50439608 85.86021909 -4.53933856 69.14808124 -3.90625 59.66796875 C-3.7937832 57.9377933 -3.68168857 56.20759361 -3.56994629 54.47737122 C-3.27772266 49.96784127 -2.98051231 45.45865397 -2.68218994 40.94952393 C-2.37750645 36.33048141 -2.07764011 31.71112631 -1.77734375 27.09179688 C-1.1895561 18.06088919 -0.59648911 9.03033684 0 0 Z " fill="#01D25E" transform="translate(798,455)"/>
<path d="M0 0 C1.1559893 0.89395162 2.31363869 1.78575932 3.47265625 2.67578125 C9.79224188 7.54866372 15.90137859 12.55313867 21.77734375 17.9609375 C23.79562103 19.81250295 25.85349135 21.59833 27.9375 23.375 C33.22657407 27.96900068 38.09005647 33.00882579 43 38 C39.22398111 39.25867296 35.93853304 38.86682963 32.0402832 38.56274414 C31.23029877 38.50436874 30.42031433 38.44599335 29.58578491 38.385849 C26.90699571 38.19135343 24.22892827 37.98828797 21.55078125 37.78515625 C19.69422713 37.64867814 17.83763366 37.5127343 15.98100281 37.37730408 C11.09304838 37.01931047 6.20566302 36.65404949 1.31835938 36.28729248 C-3.66829749 35.91436653 -8.65545644 35.54828852 -13.64257812 35.18164062 C-23.42889014 34.46114322 -33.21461484 33.73297033 -43 33 C-43.05410538 34.16051376 -43.10821075 35.32102753 -43.16395569 36.51670837 C-43.70958869 47.77021104 -44.52149416 58.97335672 -45.55859375 70.19140625 C-45.70937858 71.84097217 -45.86009842 73.49054404 -46.01075745 75.14012146 C-46.32319385 78.5493215 -46.63878838 81.95821236 -46.95629883 85.36694336 C-47.36287461 89.73845769 -47.75749522 94.11096873 -48.1494894 98.48381138 C-48.45484331 101.86859269 -48.76822665 105.25259481 -49.08390999 108.63642693 C-49.23315622 110.25054115 -49.37945298 111.86493094 -49.52273369 113.47958565 C-49.72211499 115.71717136 -49.93271582 117.95342325 -50.14624023 120.18969727 C-50.26313705 121.46031509 -50.38003387 122.73093292 -50.50047302 124.04005432 C-51 127 -51 127 -53 129 C-53.69609375 128.14341797 -53.69609375 128.14341797 -54.40625 127.26953125 C-83.03920759 93.66854184 -130.73599733 72.64775328 -174.08789062 68.81542969 C-217.36989132 65.62799553 -257.64268365 76.16848675 -296.64453125 94.38671875 C-297.56572754 94.8151709 -298.48692383 95.24362305 -299.43603516 95.68505859 C-301.97801161 96.91093021 -301.97801161 96.91093021 -304.02880859 98.44384766 C-311.80668831 103.88893804 -320.97900586 102.39400172 -330 102 C-331.93556129 101.92942566 -333.87112621 101.85893585 -335.80675316 101.79018593 C-344.89157388 101.4656031 -353.97293106 101.07168479 -363.05450439 100.66760254 C-366.24228389 100.52700483 -369.43026264 100.39126537 -372.61825466 100.25558567 C-375.72844201 100.12277377 -378.83851787 99.98748665 -381.94856453 99.85142326 C-383.4151044 99.78743636 -384.88167052 99.72404775 -386.34826469 99.66131783 C-394.91734594 99.29274043 -403.45839905 98.79367827 -412 98 C-412.18184981 87.94157685 -411.61356298 77.97259703 -410.9765625 67.94140625 C-410.869165 66.22176145 -410.76185664 64.50211107 -410.65463257 62.78245544 C-410.43037746 59.20285403 -410.20295347 55.62346972 -409.97363281 52.04418945 C-409.68067256 47.46286377 -409.39899213 42.8809181 -409.12001991 38.29872227 C-408.90265118 34.75788196 -408.67771869 31.21755169 -408.45066452 27.67732048 C-408.34350423 25.98743563 -408.23906603 24.29737581 -408.13743973 22.60714912 C-407.99490541 20.24996589 -407.84178395 17.89369547 -407.68603516 15.53735352 C-407.64647202 14.84482483 -407.60690887 14.15229614 -407.56614685 13.43878174 C-407.30040124 9.6095192 -406.76468305 6.42751154 -405 3 C-402.62890625 1.11328125 -402.62890625 1.11328125 -399.5625 -0.6875 C-398.99176758 -1.02289795 -398.42103516 -1.3582959 -397.83300781 -1.70385742 C-395.90028416 -2.82445857 -393.95291404 -3.91499566 -392 -5 C-391.31728027 -5.38317383 -390.63456055 -5.76634766 -389.93115234 -6.16113281 C-349.66008267 -28.58197498 -305.03650381 -43.6493658 -260 -53 C-258.49614746 -53.31275879 -258.49614746 -53.31275879 -256.96191406 -53.63183594 C-169.89649405 -71.25894214 -70.6610453 -56.62906467 0 0 Z " fill="#0C2B3F" transform="translate(539,75)"/>
<path d="M0 0 C1.66394699 3.32789399 0.66270225 6.97162291 0.28735352 10.58056641 C0.19971741 11.46843338 0.1120813 12.35630035 0.02178955 13.27107239 C-0.27022054 16.2151596 -0.57063309 19.15832669 -0.87109375 22.1015625 C-1.07482137 24.13889499 -1.27802639 26.17627979 -1.48072815 28.2137146 C-2.01638567 33.58350227 -2.55916304 38.95254752 -3.10339355 44.32147217 C-3.65719019 49.79721987 -4.20429541 55.27363552 -4.75195312 60.75 C-5.82806323 71.50066683 -6.91169123 82.2505617 -8 93 C-6.85299118 93.05582748 -5.70598236 93.11165497 -4.5242157 93.16917419 C7.11704314 93.75021744 18.73395206 94.52278632 30.35546875 95.41015625 C32.12191886 95.54343578 33.88838341 95.67652412 35.65486145 95.80943298 C40.233248 96.15441024 44.81143804 96.50192779 49.3895874 96.85003662 C54.08968359 97.20694495 58.78996738 97.5613651 63.49023438 97.91601562 C72.66033801 98.60828815 81.83023529 99.30325352 91 100 C88.39996787 103.97015377 85.78436387 107.44831369 82.5 110.875 C47.10048719 149.53976802 32.85966788 198.34818581 35 250 C37.38222487 282.51443827 47.19748839 316.12093551 62.47412109 344.88964844 C65.78765512 351.19295134 66.13349634 355.8904992 65.39501953 362.89208984 C65.28060516 364.06137779 65.28060516 364.06137779 65.16387939 365.25428772 C64.9106189 367.82393244 64.64683224 370.39237779 64.3828125 372.9609375 C64.2038139 374.7530018 64.02542741 376.54512734 63.84762573 378.33731079 C63.37787989 383.05350188 62.89899728 387.76872401 62.41845703 392.48382568 C62.02883853 396.32239452 61.64582326 400.16160847 61.26315498 404.00087547 C60.80537397 408.59196413 60.34445606 413.18273582 59.8828125 417.7734375 C59.79537907 418.64411236 59.70794563 419.51478722 59.6178627 420.41184616 C59.36817337 422.89111107 59.11634557 425.37014879 58.86376953 427.84912109 C58.79098785 428.57350876 58.71820618 429.29789642 58.64321899 430.04423523 C58.19834452 434.38268767 57.64314003 438.6876834 57 443 C40.48286249 442.17942459 23.99861162 441.11853161 7.51764393 439.74974251 C3.21438261 439.39325936 -1.08853923 439.05716343 -5.39672852 438.765625 C-9.62467769 438.47890688 -13.84588926 438.14194748 -18.06716347 437.7699852 C-19.65846112 437.63832399 -21.25132018 437.52419458 -22.84520531 437.42883682 C-35.14563951 436.67523064 -35.14563951 436.67523064 -39.67868042 432.58007812 C-41.73250026 429.8006071 -43.39122658 427.0545909 -45 424 C-46.13360263 422.15712021 -47.27331188 420.31796809 -48.421875 418.484375 C-49.53904722 416.57746334 -50.64820502 414.66583759 -51.75 412.75 C-52.34562744 411.72076416 -52.94125488 410.69152832 -53.55493164 409.63110352 C-59.70034351 398.92332482 -65.44883692 388.02580362 -71 377 C-71.3407959 376.33307129 -71.6815918 375.66614258 -72.03271484 374.97900391 C-82.60061641 354.1866435 -89.59944498 331.61900209 -95 309 C-95.24089355 307.99372559 -95.48178711 306.98745117 -95.72998047 305.95068359 C-115.24787861 222.69147478 -95.92620438 136.75827892 -51.75 64.5 C-43.15063407 50.66117513 -33.40835228 37.53124393 -23 25 C-22.17371094 23.989375 -21.34742187 22.97875 -20.49609375 21.9375 C-14.08623085 14.17108291 -7.23109333 7.00393857 0 0 Z " fill="#0C2B3F" transform="translate(111,92)"/>
<path d="M0 0 C0.56187012 0.44915771 1.12374023 0.89831543 1.70263672 1.36108398 C2.83705073 2.30456516 3.94688281 3.27830959 5.03153992 4.27859497 C6.27768041 5.38976366 7.53807237 6.48800653 8.85580063 7.51326466 C19.25898339 15.61274942 19.25898339 15.61274942 20.91044426 21.41236687 C21.54677594 27.08170221 20.65902894 32.66027362 19.8671875 38.2734375 C19.6654681 40.07586811 19.4700318 41.87901182 19.2805481 43.68276978 C18.7679431 48.40061498 18.17092406 53.10389574 17.55493164 57.8092041 C16.94403082 62.59472918 16.41527525 67.38924836 15.87890625 72.18359375 C14.51181285 84.24629974 13.05528959 96.29772698 11.3125 108.3125 C-4.53073751 108.45506063 -20.37213266 107.87845505 -36.20314693 107.31782818 C-41.43972148 107.13354973 -46.67529717 106.96933197 -51.91381836 106.85131836 C-57.01981035 106.73565663 -62.12173865 106.56790319 -67.22497749 106.3648777 C-69.15347658 106.29691834 -71.08270637 106.24694766 -73.01215935 106.21631432 C-84.99227734 106.01141804 -92.60722586 104.7048745 -101.1762085 95.94128418 C-102.00493469 95.0737854 -102.83366089 94.20628662 -103.6875 93.3125 C-138.8137956 65.24974831 -186.16442233 57.2984759 -229.8515625 61.9609375 C-263.19360851 66.33870614 -294.80993721 78.26200001 -324.6875 93.3125 C-326.57141832 94.25429894 -328.45552668 95.19571786 -330.33984375 96.13671875 C-331.78910818 96.86188788 -333.23833488 97.58713243 -334.6875 98.3125 C-334.8933048 88.69970064 -334.10609032 79.19371428 -333.375 69.6171875 C-333.24015519 67.81546403 -333.10563902 66.01371594 -332.97143555 64.21194458 C-332.61960387 59.50015665 -332.26334646 54.78871372 -331.90612793 50.07733154 C-331.54148632 45.25748612 -331.18108438 40.43732384 -330.8203125 35.6171875 C-330.11349541 26.18197896 -329.40199667 16.74712988 -328.6875 7.3125 C-329.78579636 7.25626465 -330.88409271 7.2000293 -332.01567078 7.14208984 C-342.70085573 6.58053586 -353.35754764 5.8324445 -364.01953125 4.9375 C-365.59607372 4.80667221 -367.17262731 4.67597852 -368.74919128 4.54541016 C-372.01042252 4.27473974 -375.27149815 4.0022843 -378.5324707 3.72851562 C-382.70352943 3.37851972 -386.87498055 3.0334626 -391.04655933 2.68972778 C-394.28351546 2.42241248 -397.52024028 2.15237703 -400.75690269 1.88153076 C-402.29616733 1.75307993 -403.83550524 1.62550385 -405.37491798 1.49884033 C-407.51557067 1.32233016 -409.6558804 1.14211323 -411.79614258 0.9609375 C-413.61665886 0.80890869 -413.61665886 0.80890869 -415.47395325 0.65380859 C-418.26902712 0.35694572 -420.94591341 -0.07874822 -423.6875 -0.6875 C-419.75994933 -4.07977649 -415.74373968 -6.37844032 -411.1328125 -8.6640625 C-410.03814919 -9.21453247 -410.03814919 -9.21453247 -408.92137146 -9.77612305 C-406.55534098 -10.96227746 -404.18447383 -12.13828034 -401.8125 -13.3125 C-400.59782547 -13.91659698 -400.59782547 -13.91659698 -399.35861206 -14.53289795 C-386.3121603 -21.01523218 -373.19455477 -27.21512957 -359.6875 -32.6875 C-358.88086914 -33.01830566 -358.07423828 -33.34911133 -357.24316406 -33.68994141 C-269.88338254 -69.23597101 -172.63340812 -79.52216762 0 0 Z " fill="#01D25E" transform="translate(1257.6875,79.6875)"/>
<path d="M0 0 C15.00482229 -0.3666216 30.05464119 1.62845143 44.97680664 3.03344727 C48.7880079 3.39049235 52.60016825 3.72981679 56.41430664 4.05395508 C61.04522713 4.44764072 65.67236886 4.87206519 70.29850197 5.31840324 C72.05291191 5.48254713 73.8083562 5.63601748 75.56467247 5.77832222 C90.97342885 7.04096948 90.97342885 7.04096948 95.51171875 11.52416992 C96.92138672 13.35441589 96.92138672 13.35441589 98 15 C98.92232422 16.01320312 98.92232422 16.01320312 99.86328125 17.046875 C100.34152344 17.60890625 100.81976562 18.1709375 101.3125 18.75 C104.15728251 22.04866916 107.06299293 25.28306639 110 28.5 C112.84524228 31.61907011 115.6719958 34.74755391 118.4375 37.9375 C121.86768576 41.88667367 125.41003518 45.73022305 128.95288086 49.57788086 C132.06599299 52.96462619 135.11252082 56.39906249 138.125 59.875 C140.54550142 62.61823494 143.02204178 65.30881243 145.5 68 C149.1441694 71.95859723 152.73913779 75.95176832 156.265625 80.015625 C158.28098763 82.32149035 160.32553876 84.59939131 162.375 86.875 C163.12652344 87.71160156 163.87804687 88.54820312 164.65234375 89.41015625 C166.25653454 91.17983761 167.87442258 92.93717365 169.50390625 94.68359375 C170.30699219 95.55113281 171.11007812 96.41867188 171.9375 97.3125 C172.66839844 98.09238281 173.39929688 98.87226563 174.15234375 99.67578125 C176.03742093 102.04707284 177.03465232 104.14439036 178 107 C175.85300839 109.38554624 173.70595552 111.77103693 171.55859375 114.15625 C169.96627726 115.92603077 168.37495102 117.69670363 166.78515625 119.46875 C162.25123107 124.5191983 157.6819607 129.53578637 153.09082031 134.53417969 C148.69316338 139.32574851 144.34208322 144.15810864 140 149 C134.73054855 154.87600701 129.42994352 160.72145443 124.09082031 166.53417969 C119.69316338 171.32574851 115.34208322 176.15810864 111 181 C108.80551255 183.44709032 106.60932981 185.89229505 104.40234375 188.328125 C102.62591795 190.30385711 100.87215762 192.2923387 99.12890625 194.296875 C98.14863623 195.4064256 97.16817032 196.51580318 96.1875 197.625 C95.73133301 198.15851074 95.27516602 198.69202148 94.80517578 199.24169922 C93.48046875 200.7265625 93.48046875 200.7265625 91 203 C87 203 87 203 85.46362305 201.84179688 C84.98449463 201.30619141 84.50536621 200.77058594 84.01171875 200.21875 C83.47393799 199.62811768 82.93615723 199.03748535 82.38208008 198.42895508 C81.82286865 197.7923999 81.26365723 197.15584473 80.6875 196.5 C79.81484497 195.53259888 79.81484497 195.53259888 78.92456055 194.5456543 C77.27119685 192.7072212 75.63279212 190.8567027 74 189 C73.32195312 188.23300781 72.64390625 187.46601563 71.9453125 186.67578125 C70.87170103 185.45063131 69.80254523 184.22155986 68.73828125 182.98828125 C66.52743511 180.45947072 64.26403557 177.98127436 62 175.5 C59.15475772 172.38092989 56.3280042 169.25244609 53.5625 166.0625 C50.6011649 162.6531142 47.55847514 159.3220569 44.5 156 C40.85585671 152.04137814 37.26086283 148.0482324 33.734375 143.984375 C30.20500535 139.94626738 26.59429369 135.98025811 23 132 C18.2590957 126.7500053 13.5395849 121.48684648 8.8984375 116.1484375 C5.69637787 112.52470746 2.41265859 108.97484677 -0.86328125 105.41796875 C-4.88190186 100.87038894 -5.29100674 97.89525415 -5.19335938 92.04345703 C-5.18613609 91.24604158 -5.17891281 90.44862614 -5.17147064 89.62704659 C-5.04753674 80.50334746 -4.49229329 71.40814644 -3.90625 62.3046875 C-3.79366496 60.49198352 -3.68157345 58.67924882 -3.56994629 56.8664856 C-3.27891284 52.16132563 -2.98130816 47.4566051 -2.68218994 42.75195312 C-2.37649469 37.92473327 -2.07721344 33.09711587 -1.77734375 28.26953125 C-1.1910659 18.84596118 -0.59782424 9.42284414 0 0 Z " fill="#0C2C40" transform="translate(514,128)"/>
<path d="M0 0 C4.25580707 1.60481508 6.85889106 4.82160934 9.8125 8.125 C10.3472998 8.71394043 10.88209961 9.30288086 11.43310547 9.90966797 C14.73997836 13.56157097 18.00353902 17.25043292 21.2265625 20.9765625 C23.45138092 23.51501171 25.72503319 26.00641776 28 28.5 C30.84524228 31.61907011 33.6719958 34.74755391 36.4375 37.9375 C39.86768576 41.88667367 43.41003518 45.73022305 46.95288086 49.57788086 C50.06599299 52.96462619 53.11252082 56.39906249 56.125 59.875 C58.54550142 62.61823494 61.02204178 65.30881243 63.5 68 C67.1441694 71.95859723 70.73913779 75.95176832 74.265625 80.015625 C76.28098763 82.32149035 78.32553876 84.59939131 80.375 86.875 C81.50228516 88.12796875 81.50228516 88.12796875 82.65234375 89.40625 C84.26164825 91.18425032 85.87928674 92.95473256 87.50390625 94.71875 C88.30699219 95.5953125 89.11007812 96.471875 89.9375 97.375 C90.66839844 98.16648437 91.39929688 98.95796875 92.15234375 99.7734375 C94 102 94 102 96 106 C65.31 106 34.62 106 3 106 C3 109.3 3 112.6 3 116 C2.83189807 118.42529242 2.62520146 120.84833287 2.37329102 123.26635742 C2.27328796 124.24654594 2.27328796 124.24654594 2.17126465 125.24653625 C1.95370713 127.36672008 1.72894831 129.48606747 1.50390625 131.60546875 C1.34895235 133.09894151 1.19441385 134.59245742 1.04026794 136.08601379 C0.71800488 139.19854312 0.39246707 142.31070472 0.06420898 145.42260742 C-0.35492798 149.39625017 -0.7684303 153.37045216 -1.17980862 157.3449049 C-1.5750234 161.16112247 -1.97291237 164.97705975 -2.37109375 168.79296875 C-2.44593931 169.51212149 -2.52078487 170.23127422 -2.59789848 170.97221947 C-2.81177416 173.0222445 -3.0275335 175.07206234 -3.24389648 177.12182617 C-3.36603012 178.28413254 -3.48816376 179.4464389 -3.61399841 180.64396667 C-4.01228717 184.10682899 -4.49149283 187.5517452 -5 191 C-13.34413431 184.28841371 -20.15396475 176.15298397 -27.15625 168.09375 C-30.25760235 164.5718753 -33.43513333 161.11922978 -36.59765625 157.65234375 C-38.56941844 155.47539004 -40.51365337 153.28161326 -42.4375 151.0625 C-45.3988351 147.6531142 -48.44152486 144.3220569 -51.5 141 C-55.14414329 137.04137814 -58.73913717 133.0482324 -62.265625 128.984375 C-66.56766064 124.06222611 -70.97863448 119.23519592 -75.36328125 114.38671875 C-79.64372794 109.64585426 -83.86934562 104.87205388 -88 100 C-86.71104283 97.18648214 -85.33731495 95.0674293 -83.20703125 92.828125 C-82.66288574 92.25046387 -82.11874023 91.67280273 -81.55810547 91.07763672 C-80.98205566 90.4745166 -80.40600586 89.87139648 -79.8125 89.25 C-78.62285939 87.98776895 -77.4340492 86.72475468 -76.24609375 85.4609375 C-75.67874512 84.85862305 -75.11139648 84.25630859 -74.52685547 83.63574219 C-72.22012521 81.16450894 -70.01243171 78.61391337 -67.8046875 76.0546875 C-65.41218226 73.33075297 -62.95594058 70.66656731 -60.5 68 C-57.46107665 64.6997517 -54.43843844 61.3905059 -51.5 58 C-48.56155935 54.60949156 -45.53883698 51.30033018 -42.5 48 C-38.8558306 44.04140277 -35.26086221 40.04823168 -31.734375 35.984375 C-28.20499286 31.94625309 -24.59365774 27.98085319 -21 24 C-18.75695091 21.50858561 -16.51475404 19.01641063 -14.2734375 16.5234375 C-12.6987273 14.77556329 -11.1203499 13.03098862 -9.5390625 11.2890625 C-8.74242187 10.40992188 -7.94578125 9.53078125 -7.125 8.625 C-6.04605469 7.43777344 -6.04605469 7.43777344 -4.9453125 6.2265625 C-3.18729633 4.21437531 -1.56908243 2.161189 0 0 Z " fill="#0C2C40" transform="translate(781,334)"/>
<path d="M0 0 C1.50481934 0.01015137 1.50481934 0.01015137 3.04003906 0.02050781 C22.31030809 0.289279 40.36895829 5.01912617 54.765625 18.5234375 C64.98154928 29.07352753 67.63817836 42.58240525 67.8125 56.75 C67.86857422 58.43222656 67.86857422 58.43222656 67.92578125 60.1484375 C68.06135797 73.19393095 62.94926564 83.52446273 54.4375 93.25 C37.71384267 109.21897965 12.74935475 112.75564132 -9.43164062 112.30908203 C-13.70657905 112.19055143 -17.97810565 112.01108577 -22.25 111.8125 C-23.12390381 111.77334473 -23.99780762 111.73418945 -24.89819336 111.69384766 C-26.13001343 111.63076416 -26.13001343 111.63076416 -27.38671875 111.56640625 C-28.11979248 111.52974854 -28.85286621 111.49309082 -29.6081543 111.45532227 C-31.5625 111.25 -31.5625 111.25 -34.5625 110.25 C-34.5625 74.61 -34.5625 38.97 -34.5625 2.25 C-8.815625 -0.090625 -8.815625 -0.090625 0 0 Z M-4.22747803 29.45761108 C-6.00063398 31.83823488 -5.93095633 33.30326308 -5.91894531 36.25634766 C-5.92194641 37.27395172 -5.92494751 38.29155579 -5.92803955 39.33999634 C-5.90951935 40.98540909 -5.90951935 40.98540909 -5.890625 42.6640625 C-5.88875183 43.78944427 -5.88687866 44.91482605 -5.88494873 46.0743103 C-5.87822405 48.45321617 -5.86430142 50.8321109 -5.84375 53.2109375 C-5.81256575 56.86729108 -5.8027773 60.52321407 -5.796875 64.1796875 C-5.78770659 66.48698446 -5.77733133 68.79427702 -5.765625 71.1015625 C-5.76137512 72.2025528 -5.75712524 73.30354309 -5.75274658 74.43789673 C-5.74313904 75.44919647 -5.73353149 76.46049622 -5.72363281 77.50244141 C-5.71680481 78.3971817 -5.70997681 79.291922 -5.70294189 80.21377563 C-5.78682319 82.24460217 -5.78682319 82.24460217 -4.5625 83.25 C7.45210686 83.90626004 18.67669996 84.2755467 28.4375 76.25 C34.02516164 69.77041115 35.64577992 65.15718249 35.75 56.5625 C35.77900391 55.78455078 35.80800781 55.00660156 35.83789062 54.20507812 C35.91260098 47.31448492 34.00168729 42.35228227 29.61328125 37.04296875 C24.85794994 32.94560781 20.52781289 30.73823435 14.4375 29.25 C13.82519531 29.06695312 13.21289062 28.88390625 12.58203125 28.6953125 C9.66308579 28.08919268 6.85415111 28.040671 3.875 28 C2.73933594 27.97421875 1.60367188 27.9484375 0.43359375 27.921875 C-2.49662743 27.9923852 -2.49662743 27.9923852 -4.22747803 29.45761108 Z " fill="#01D35E" transform="translate(243.5625,280.75)"/>
<path d="M0 0 C0.71542969 0.35964844 1.43085937 0.71929687 2.16796875 1.08984375 C14.81121103 8.18116327 23.48624221 20.59013035 27.40893555 34.33691406 C28.37550274 38.69185622 28.48935928 42.92786102 28.4375 47.375 C28.42992676 48.2925708 28.42235352 49.2101416 28.41455078 50.15551758 C28.07122343 64.33343373 22.11684381 77.02465051 12 87 C0.70800216 97.43551896 -13.51657634 101.82579176 -28.69140625 101.37890625 C-39.39512997 100.70034708 -49.65909879 96.70507792 -58 90 C-59.546875 88.8553125 -59.546875 88.8553125 -61.125 87.6875 C-68.12363582 81.14529695 -72.53287438 73.89506012 -76 65 C-76.36609375 64.12859375 -76.7321875 63.2571875 -77.109375 62.359375 C-80.43999326 49.79651667 -79.46505279 34.32599474 -73 23 C-69.60005707 17.40054957 -65.88554284 12.39698855 -61 8 C-60.51273438 7.52046875 -60.02546875 7.0409375 -59.5234375 6.546875 C-54.63904108 1.96341295 -49.15798674 -0.49320894 -43 -3 C-42.1646875 -3.36222656 -41.329375 -3.72445313 -40.46875 -4.09765625 C-27.60103855 -8.80088623 -11.79986606 -6.13593035 0 0 Z M-46.37109375 31.65234375 C-51.18067624 38.5841401 -52.12140046 45.64341002 -51 54 C-48.48902554 62.17229187 -43.40217264 68.08726139 -35.90625 72.12890625 C-29.01675038 74.91216425 -21.79021111 74.38163256 -14.73828125 72.34765625 C-8.0313478 69.48831527 -2.8600548 63.91961075 0.23828125 57.390625 C2.5320198 50.39825901 2.29280289 43.97597474 0 37 C-3.62710605 29.97026678 -9.82160374 24.99836343 -16.875 21.625 C-28.91216302 19.2175674 -38.56872358 21.9584899 -46.37109375 31.65234375 Z " fill="#0C2B3F" transform="translate(964,287)"/>
<path d="M0 0 C9.2941274 7.37402196 14.89247806 18.84481905 16.90625 30.375 C18.00990836 41.18384453 13.78977554 52.82274395 7.2109375 61.28125 C0.21176895 68.90646225 -8.09757349 72.20098936 -18.3671875 72.88671875 C-25.53477436 72.59324275 -32.7197476 69.9130649 -37.84765625 64.78515625 C-38.17765625 74.02515625 -38.50765625 83.26515625 -38.84765625 92.78515625 C-47.42765625 92.78515625 -56.00765625 92.78515625 -64.84765625 92.78515625 C-64.84765625 60.77515625 -64.84765625 28.76515625 -64.84765625 -4.21484375 C-56.26765625 -4.21484375 -47.68765625 -4.21484375 -38.84765625 -4.21484375 C-38.51765625 -1.24484375 -38.18765625 1.72515625 -37.84765625 4.78515625 C-36.98140625 4.02203125 -36.11515625 3.25890625 -35.22265625 2.47265625 C-24.76128478 -6.17997342 -11.50484742 -7.56449799 0 0 Z M-33.84765625 21.78515625 C-37.91042488 26.2646191 -39.11678739 30.84356884 -38.84765625 36.78515625 C-37.41410142 41.38762176 -35.81971782 44.96290197 -31.84765625 47.78515625 C-27.19881835 49.60858393 -23.88641953 50.07464766 -19.03515625 48.72265625 C-14.69460848 46.08428408 -12.66740388 43.54175831 -10.53515625 38.97265625 C-9.67181683 34.96990076 -9.4869985 31.64395282 -10.84765625 27.78515625 C-13.85465889 23.2061281 -17.30280403 19.01734563 -22.84765625 17.78515625 C-27.1825937 17.78515625 -30.24401298 19.4529597 -33.84765625 21.78515625 Z " fill="#0C2B3F" transform="translate(1068.84765625,312.21484375)"/>
<path d="M0 0 C10.37491799 8.70752045 14.80954457 19.46995458 16.1875 32.75 C16.62332759 39.5325669 16.62332759 39.5325669 16.1875 42.75 C14.1875 44.75 14.1875 44.75 11.93490601 44.99050903 C10.52925888 44.9838472 10.52925888 44.9838472 9.09521484 44.97705078 C8.03426605 44.97689972 6.97331726 44.97674866 5.88021851 44.97659302 C4.73123077 44.96627045 3.58224304 44.95594788 2.3984375 44.9453125 C1.22487701 44.9424826 0.05131653 44.93965271 -1.1578064 44.93673706 C-4.91780662 44.92551355 -8.67757139 44.90040492 -12.4375 44.875 C-14.9817674 44.86497301 -17.52603852 44.85584668 -20.0703125 44.84765625 C-26.3177891 44.82556714 -32.56512773 44.79206824 -38.8125 44.75 C-38.0265431 45.87847142 -37.23673479 47.00426107 -36.4453125 48.12890625 C-36.00590332 48.75611572 -35.56649414 49.3833252 -35.11376953 50.02954102 C-32.64719821 53.29069076 -30.46901272 54.48299631 -26.4375 55.1328125 C-19.48397874 55.5871619 -15.12503541 53.80524671 -9.3203125 50.0625 C-6.42957468 48.54959049 -5.02383016 48.20392358 -1.8125 48.75 C0.79296875 50.39453125 0.79296875 50.39453125 3.375 52.5625 C4.23480469 53.27019531 5.09460938 53.97789062 5.98046875 54.70703125 C8.61521987 57.14592476 10.01152198 58.97569673 10.8125 62.5 C9.82542219 67.63280463 6.33972711 69.84273366 2.1875 72.75 C-0.40884673 74.28312613 -3.03518248 75.58031138 -5.8125 76.75 C-6.58207031 77.09933594 -7.35164063 77.44867188 -8.14453125 77.80859375 C-20.48425192 82.16272652 -35.27285219 79.56881474 -46.93359375 74.3828125 C-51.848446 71.59528436 -56.06335707 67.97193308 -59.8125 63.75 C-59.8125 63.09 -59.8125 62.43 -59.8125 61.75 C-60.4725 61.75 -61.1325 61.75 -61.8125 61.75 C-69.30728486 48.03312959 -71.77044511 36.04510991 -67.8125 20.75 C-65.70888212 15.20497961 -62.47916391 10.38157546 -58.8125 5.75 C-58.1525 5.75 -57.4925 5.75 -56.8125 5.75 C-56.8125 5.09 -56.8125 4.43 -56.8125 3.75 C-41.00687909 -10.16991776 -17.30475011 -12.6114485 0 0 Z M-36.8125 21.75 C-39.0898501 24.56509993 -39.0898501 24.56509993 -38.8125 27.75 C-30.5625 27.75 -22.3125 27.75 -13.8125 27.75 C-14.1425 26.1 -14.4725 24.45 -14.8125 22.75 C-15.4725 22.75 -16.1325 22.75 -16.8125 22.75 C-16.8125 22.09 -16.8125 21.43 -16.8125 20.75 C-24.77953086 16.92582519 -29.37303891 16.74267042 -36.8125 21.75 Z " fill="#01D35E" transform="translate(389.8125,313.25)"/>
<path d="M0 0 C1.20140625 -0.01224609 2.4028125 -0.02449219 3.640625 -0.03710938 C5.36539062 -0.04000977 5.36539062 -0.04000977 7.125 -0.04296875 C8.17945313 -0.04707764 9.23390625 -0.05118652 10.3203125 -0.05541992 C13 0.1875 13 0.1875 16 2.1875 C16.89225769 4.06045532 16.89225769 4.06045532 17.62573242 6.36181641 C17.90579636 7.22255768 18.18586029 8.08329895 18.47441101 8.97012329 C18.76516006 9.90037323 19.05590912 10.83062317 19.35546875 11.7890625 C19.81521843 13.21646255 19.81521843 13.21646255 20.28425598 14.67269897 C21.26200433 17.71620231 22.22488534 20.76418026 23.1875 23.8125 C23.84733438 25.87531146 24.50812975 27.93781579 25.16992188 30 C26.79112065 35.05898746 28.40013438 40.12172836 30 45.1875 C31.39849778 41.02172304 32.7931418 36.85466414 34.1875 32.6875 C34.6002417 31.459104 35.0129834 30.23070801 35.43823242 28.96508789 C37.22259506 23.63094897 38.9995542 18.30382894 40.5703125 12.90234375 C40.7866333 12.16371094 41.0029541 11.42507813 41.22583008 10.6640625 C41.77434044 8.75762948 42.30390527 6.84577403 42.83203125 4.93359375 C44 2.1875 44 2.1875 45.72924805 1.03027344 C48.4509873 0.02011927 50.59826916 -0.05540056 53.5 -0.04296875 C54.551875 -0.04103516 55.60375 -0.03910156 56.6875 -0.03710938 C57.780625 -0.02486328 58.87375 -0.01261719 60 0 C61.093125 0.00064453 62.18625 0.00128906 63.3125 0.00195312 C72.15362193 0.05070931 72.15362193 0.05070931 76 1.1875 C74.53224387 7.80801703 72.27882336 13.90350081 69.75 20.1875 C67.1550768 26.68837032 64.60184495 33.20059635 62.15234375 39.7578125 C59.04584238 48.07351195 55.91538793 56.37940363 52.73071289 64.66552734 C52.109509 66.28716516 51.49209907 67.9102606 50.87817383 69.53466797 C49.97606729 71.91993891 49.0616863 74.30016923 48.14453125 76.6796875 C47.87260452 77.40662811 47.6006778 78.13356873 47.32051086 78.88253784 C45.9249265 82.46362032 45.2832323 83.99867847 42 86.1875 C38.0360168 86.65183114 34.05076456 86.55783263 30.0625 86.5625 C28.96486328 86.58699219 27.86722656 86.61148438 26.73632812 86.63671875 C25.15174805 86.64251953 25.15174805 86.64251953 23.53515625 86.6484375 C22.08701538 86.66076416 22.08701538 86.66076416 20.60961914 86.67333984 C17.14324305 86.02799525 16.12863365 84.98087181 14 82.1875 C12.89956958 79.83968893 11.95975655 77.59441873 11.08203125 75.16796875 C10.82343323 74.48103439 10.56483521 73.79410004 10.29840088 73.08634949 C9.45984926 70.85279996 8.63627997 68.6140345 7.8125 66.375 C7.23419693 64.82783667 6.65468002 63.28112653 6.07397461 61.73486328 C5.20112421 59.40994335 4.32913487 57.08473893 3.46131897 54.75793457 C1.06449115 48.33174252 -1.41709553 41.94124018 -3.9375 35.5625 C-6.9699939 27.85775457 -9.92827668 20.13009334 -12.80859375 12.3671875 C-13.55380826 10.37831993 -14.33260101 8.40135217 -15.16015625 6.4453125 C-16 4.1875 -16 4.1875 -16 1.1875 C-10.84392299 -0.53119234 -5.39686549 0.00289531 0 0 Z " fill="#01D25E" transform="translate(424,305.8125)"/>
<path d="M0 0 C-1.94991289 6.6474303 -4.01828896 12.01828896 -9 17 C-13.04960837 17.59262561 -15.6699072 16.80502304 -19.25 15.0625 C-24.10403212 12.72231075 -28.66141787 12.22290531 -34 12 C-33.82097763 13.96575851 -33.82097763 13.96575851 -33 16 C-31.16415696 17.08439152 -31.16415696 17.08439152 -28.84375 17.67578125 C-27.98974609 17.94269775 -27.13574219 18.20961426 -26.25585938 18.48461914 C-25.34642578 18.75781982 -24.43699219 19.03102051 -23.5 19.3125 C-13.36102188 22.60552434 -5.2867463 26.30763178 0 36 C2.0157881 42.04736429 2.12077772 49.42440908 -0.5 55.3125 C-3.85764294 61.03602657 -9.50735843 66.29954626 -16 68 C-16.64839844 68.20496094 -17.29679687 68.40992188 -17.96484375 68.62109375 C-31.22251892 72.17265066 -47.97011777 67.992376 -59.8125 61.6875 C-62.5368258 59.76478819 -62.93632801 59.19897498 -64 55.875 C-63.38771027 50.12202771 -58.50043023 45.32084356 -55 41 C-51.62676259 41.56318398 -48.94239857 42.37508467 -45.9375 44 C-41.07183753 46.62071325 -37.29088219 47.12272698 -31.75 47.0625 C-30.67234375 47.05347656 -29.5946875 47.04445313 -28.484375 47.03515625 C-27.66453125 47.02355469 -26.8446875 47.01195312 -26 47 C-26 46.01 -26 45.02 -26 44 C-32.23057306 40.43967254 -38.47174499 38.72817435 -45.4140625 37.125 C-50.32951532 35.58289715 -54.71620955 33.04479585 -58 29 C-61.22751549 22.14651032 -61.94492299 15.73647926 -59.8125 8.4375 C-57.43802002 1.96264487 -53.33817929 -2.52184348 -47.4140625 -5.9609375 C-32.84537111 -12.23160402 -12.49539931 -9.71864391 0 0 Z " fill="#0C2B3F" transform="translate(1153,315)"/>
</svg>
