<svg xmlns="http://www.w3.org/2000/svg" viewBox="0 0 128 128">
  <path fill-rule="evenodd" clip-rule="evenodd" fill="#0db7ed" d="M73.8 50.8h11.3v11.5h5.7c2.6 0 5.3-.5 7.8-1.3 1.2-.4 2.6-1 3.8-1.7-1.6-2.1-2.4-4.7-2.6-7.3-.3-3.5.4-8.1 2.8-10.8l1.2-1.4 1.4 1.1c3.6 2.9 6.5 6.8 7.1 11.4 4.3-1.3 9.3-1 13.1 1.2l1.5.9-.8 1.6c-3.2 6.2-9.9 8.2-16.4 7.8-9.8 24.3-31 35.8-56.8 35.8-13.3 0-25.5-5-32.5-16.8l-.1-.2-1.2-2.4c-2.4-5.2-3.1-10.9-2.6-16.6l.2-1.7h9.6v-11.4h11.3v-11.2h22.5v-11.3h13.5v22.5z"/>
  <path fill="#0db7ed" d="M110.4 55.1c.8-5.9-3.6-10.5-6.4-12.7-3.1 3.6-3.6 13.2 1.3 17.2-2.4 2.1-7.4 4.1-12.5 4.1h-75.1c-.5 3-1 6.7.4 10.1l1.7 3c1.2 1.9 2.4 3.7 4.1 5.1 1.7 1.4 3.6 2.5 5.6 3.5 3.9 1.9 8.2 2.9 12.7 2.9 11.7 0 20.9-5 26.3-14.9 5.7.9 11.2 1 15.9.3 6.1-1 11.2-3.4 14.7-7.4 1.3-1.4 2.4-3.1 3.3-5.2.8-2.2 1.3-4.5 1.5-6.9l.1-1.1z"/>
  <path fill="#0db7ed" d="M17.9 71.8h9.9v9.9h-9.9zM29.9 71.8h9.9v9.9h-9.9zM41.9 71.8h9.9v9.9h-9.9zM53.9 71.8h9.9v9.9h-9.9zM65.9 71.8h9.9v9.9h-9.9zM17.9 59.9h9.9v9.9h-9.9zM29.9 59.9h9.9v9.9h-9.9zM41.9 59.9h9.9v9.9h-9.9zM53.9 59.9h9.9v9.9h-9.9zM29.9 47.9h9.9v9.9h-9.9zM41.9 47.9h9.9v9.9h-9.9zM53.9 47.9h9.9v9.9h-9.9z"/>
</svg> 