<svg xmlns="http://www.w3.org/2000/svg" viewBox="0 0 128 128">
  <defs>
    <linearGradient id="a" x1="0%" y1="0%" x2="100%" y2="100%">
      <stop offset="0%" stop-color="#10b981"/>
      <stop offset="100%" stop-color="#059669"/>
    </linearGradient>
  </defs>
  <path fill="url(#a)" d="M44.4 20h39.2v22l-39.2.1V20z"/>
  <path fill="#10b981" d="M40 20h8v22h-8z"/>
  <path fill="#10b981" d="M80 20h8v22h-8z"/>
  <path fill="#0d9488" d="M38 42h52c1.1 0 2 .9 2 2v4c0 1.1-.9 2-2 2H38c-1.1 0-2-.9-2-2v-4c0-1.1.9-2 2-2z"/>
  <path fill="#0d9488" d="M50 50h28l18 58H32l18-58z"/>
  <path fill="#0f766e" d="M50 50h28l9 29H41l9-29z"/>
  <path fill="#ecfdf5" d="M59.5 62c1.9 0 3.5 1.6 3.5 3.5s-1.6 3.5-3.5 3.5-3.5-1.6-3.5-3.5 1.6-3.5 3.5-3.5zm9 8c1.9 0 3.5 1.6 3.5 3.5s-1.6 3.5-3.5 3.5-3.5-1.6-3.5-3.5 1.6-3.5 3.5-3.5zm-18 8c1.9 0 3.5 1.6 3.5 3.5s-1.6 3.5-3.5 3.5-3.5-1.6-3.5-3.5 1.6-3.5 3.5-3.5zm9 8c1.9 0 3.5 1.6 3.5 3.5s-1.6 3.5-3.5 3.5-3.5-1.6-3.5-3.5 1.6-3.5 3.5-3.5zm9 8c1.9 0 3.5 1.6 3.5 3.5s-1.6 3.5-3.5 3.5-3.5-1.6-3.5-3.5 1.6-3.5 3.5-3.5z"/>
</svg> 