<svg xmlns="http://www.w3.org/2000/svg" viewBox="0 0 24 24">
  <defs>
    <linearGradient id="a" x1="0%" y1="0%" x2="100%" y2="100%">
      <stop offset="0%" stop-color="#9333ea"/>
      <stop offset="100%" stop-color="#7e22ce"/>
    </linearGradient>
  </defs>
  <rect x="5" y="2" width="14" height="20" rx="2" fill="#1e293b"/>
  <rect x="6" y="3" width="12" height="18" rx="1.5" fill="#0f172a"/>
  <rect x="7" y="4" width="10" height="14" rx="1" fill="#f8fafc"/>
  <circle cx="12" cy="20" r="1" fill="#f8fafc"/>
  <path d="M10 2h4v1h-4z" fill="#475569"/>
  <path fill="url(#a)" d="M8 6h8v2H8z"/>
  <path fill="#9333ea" opacity="0.7" d="M8 10h8v2H8z"/>
  <path fill="#9333ea" opacity="0.5" d="M8 14h8v2H8z"/>
  <path fill="none" stroke="#9333ea" stroke-width="0.5" d="M9 6.5l2 1 2-1 2 1M9 10.5l2 1 2-1 2 1M9 14.5l2 1 2-1 2 1"/>
</svg> 