<svg width="100" height="100" viewBox="0 0 100 100" fill="none" xmlns="http://www.w3.org/2000/svg">
  <defs>
    <linearGradient id="grad1" x1="0%" y1="0%" x2="100%" y2="100%">
      <stop offset="0%" style="stop-color:#f97316;stop-opacity:1" />
      <stop offset="100%" style="stop-color:#fb923c;stop-opacity:1" />
    </linearGradient>
    <linearGradient id="grad2" x1="0%" y1="0%" x2="100%" y2="100%">
      <stop offset="0%" style="stop-color:#fdba74;stop-opacity:1" />
      <stop offset="100%" style="stop-color:#fb923c;stop-opacity:1" />
    </linearGradient>
    <linearGradient id="wood" x1="0%" y1="0%" x2="100%" y2="100%">
      <stop offset="0%" style="stop-color:#92400e;stop-opacity:1" />
      <stop offset="50%" style="stop-color:#b45309;stop-opacity:1" />
      <stop offset="100%" style="stop-color:#78350f;stop-opacity:1" />
    </linearGradient>
    <filter id="shadow" x="-20%" y="-20%" width="140%" height="140%">
      <feDropShadow dx="0" dy="4" stdDeviation="4" flood-opacity="0.3" />
    </filter>
  </defs>
  
  <!-- Business Card -->
  <rect x="15" y="60" width="70" height="40" rx="2" fill="#ffffff" filter="url(#shadow)" transform="rotate(-5 15 60)" />
  <rect x="20" y="70" width="40" height="4" rx="1" fill="#f97316" transform="rotate(-5 20 70)" />
  <rect x="20" y="77" width="30" height="2" rx="1" fill="#64748b" transform="rotate(-5 20 77)" />
  <rect x="20" y="82" width="35" height="2" rx="1" fill="#64748b" transform="rotate(-5 20 82)" />
  <rect x="20" y="87" width="25" height="2" rx="1" fill="#64748b" transform="rotate(-5 20 87)" />
  
  <!-- Logo Design -->
  <circle cx="70" cy="75" r="10" fill="#f97316" filter="url(#shadow)" transform="rotate(-5 70 75)" />
  <path d="M65 75L70 70L75 75L70 80L65 75Z" fill="#ffffff" transform="rotate(-5 65 75)" />
  
  <!-- Color Palette -->
  <rect x="10" y="10" width="40" height="40" rx="4" fill="#1e293b" filter="url(#shadow)" />
  <rect x="12" y="12" width="36" height="36" rx="3" fill="#334155" />
  
  <!-- Color Swatches -->
  <rect x="15" y="15" width="10" height="10" rx="1" fill="#ef4444" />
  <rect x="27" y="15" width="10" height="10" rx="1" fill="#f97316" />
  <rect x="15" y="27" width="10" height="10" rx="1" fill="#3b82f6" />
  <rect x="27" y="27" width="10" height="10" rx="1" fill="#10b981" />
  
  <!-- Paint Brush -->
  <rect x="55" y="15" width="5" height="30" rx="2.5" fill="url(#wood)" filter="url(#shadow)" />
  <path d="M50 15C50 10 55 5 60 5C65 5 70 10 70 15C70 20 65 25 60 25C55 25 50 20 50 15Z" fill="url(#grad1)" filter="url(#shadow)" />
  <path d="M52 15C52 11 56 7 60 7C64 7 68 11 68 15C68 19 64 23 60 23C56 23 52 19 52 15Z" fill="url(#grad2)" />
  
  <!-- Paint Drips -->
  <path d="M58 25C58 25 57 30 57 35C57 37 59 37 60 37C61 37 63 37 63 35C63 30 62 25 62 25" fill="url(#grad1)" />
  
  <!-- Typography Elements -->
  <text x="75" y="20" font-family="Arial" font-size="12" font-weight="bold" fill="#f97316">A</text>
  <text x="85" y="30" font-family="Arial" font-size="10" fill="#f97316">a</text>
  <text x="75" y="40" font-family="Arial" font-size="8" fill="#f97316" font-style="italic">a</text>
  
  <!-- Brand Guidelines Document -->
  <rect x="60" y="35" width="30" height="40" rx="2" fill="#f8fafc" filter="url(#shadow)" />
  <rect x="62" y="37" width="26" height="36" rx="1" fill="#f1f5f9" />
  
  <!-- Document Content -->
  <rect x="65" y="40" width="20" height="3" rx="1.5" fill="#f97316" />
  <rect x="65" y="45" width="15" height="2" rx="1" fill="#64748b" />
  <rect x="65" y="49" width="18" height="2" rx="1" fill="#64748b" />
  <rect x="65" y="53" width="12" height="2" rx="1" fill="#64748b" />
  
  <rect x="65" y="58" width="20" height="10" rx="1" fill="#f97316" opacity="0.1" />
  <rect x="67" y="60" width="7" height="6" rx="1" fill="#f97316" opacity="0.3" />
  <rect x="76" y="60" width="7" height="6" rx="1" fill="#f97316" opacity="0.6" />
  
  <!-- 3D Effects -->
  <path d="M10 10L15 5H50L45 10H10Z" fill="#f97316" opacity="0.1" />
  <path d="M50 10L55 5H90L85 10H50Z" fill="#f97316" opacity="0.1" />
  <path d="M90 50L95 45V90L90 95H60V90H85V50H90Z" fill="#f97316" opacity="0.1" />
</svg> 