<svg width="100" height="100" viewBox="0 0 100 100" fill="none" xmlns="http://www.w3.org/2000/svg">
  <defs>
    <linearGradient id="metal" x1="0%" y1="0%" x2="100%" y2="100%">
      <stop offset="0%" style="stop-color:#94a3b8;stop-opacity:1" />
      <stop offset="50%" style="stop-color:#cbd5e1;stop-opacity:1" />
      <stop offset="100%" style="stop-color:#64748b;stop-opacity:1" />
    </linearGradient>
    <linearGradient id="wrench" x1="0%" y1="0%" x2="100%" y2="100%">
      <stop offset="0%" style="stop-color:#e2e8f0;stop-opacity:1" />
      <stop offset="50%" style="stop-color:#cbd5e1;stop-opacity:1" />
      <stop offset="100%" style="stop-color:#94a3b8;stop-opacity:1" />
    </linearGradient>
    <linearGradient id="gear" x1="0%" y1="0%" x2="100%" y2="100%">
      <stop offset="0%" style="stop-color:#fb7185;stop-opacity:1" />
      <stop offset="100%" style="stop-color:#f43f5e;stop-opacity:1" />
    </linearGradient>
    <filter id="shadow" x="-20%" y="-20%" width="140%" height="140%">
      <feDropShadow dx="0" dy="4" stdDeviation="4" flood-opacity="0.3" />
    </filter>
  </defs>
  
  <!-- Background Website -->
  <rect x="10" y="10" width="80" height="55" rx="4" fill="#1e293b" filter="url(#shadow)" />
  <rect x="12" y="12" width="76" height="51" rx="3" fill="#334155" />
  <rect x="15" y="15" width="70" height="42" rx="1" fill="#f8fafc" />
  
  <!-- Website Header -->
  <rect x="15" y="15" width="70" height="8" rx="1" fill="#f43f5e" opacity="0.9" />
  <rect x="18" y="17" width="20" height="4" rx="1" fill="#ffffff" />
  <rect x="58" y="17" width="5" height="4" rx="1" fill="#ffffff" />
  <rect x="68" y="17" width="5" height="4" rx="1" fill="#ffffff" />
  <rect x="78" y="17" width="5" height="4" rx="1" fill="#ffffff" />
  
  <!-- Website Content -->
  <rect x="20" y="30" width="60" height="20" rx="2" fill="#e2e8f0" />
  
  <!-- Wrench -->
  <path d="M25 25C25 22 28 20 30 20C32 20 32 22 35 22C38 22 38 20 40 20C42 20 45 22 45 25C45 30 40 32 40 32L32 40L25 33L32 27C32 27 25 30 25 25Z" fill="url(#wrench)" filter="url(#shadow)" />
  <path d="M30 33L40 43" stroke="url(#wrench)" stroke-width="4" stroke-linecap="round" />
  
  <!-- Gear -->
  <circle cx="60" cy="60" r="20" fill="url(#gear)" filter="url(#shadow)" />
  <circle cx="60" cy="60" r="15" fill="#f8fafc" />
  <circle cx="60" cy="60" r="10" fill="url(#gear)" />
  <circle cx="60" cy="60" r="5" fill="#f8fafc" />
  
  <!-- Gear Teeth -->
  <rect x="59" y="35" width="2" height="7" rx="1" fill="url(#metal)" />
  <rect x="59" y="78" width="2" height="7" rx="1" fill="url(#metal)" />
  <rect x="35" y="59" width="7" height="2" rx="1" fill="url(#metal)" />
  <rect x="78" y="59" width="7" height="2" rx="1" fill="url(#metal)" />
  
  <rect x="43" y="43" width="2" height="7" rx="1" transform="rotate(-45 43 43)" fill="url(#metal)" />
  <rect x="74" y="74" width="2" height="7" rx="1" transform="rotate(-45 74 74)" fill="url(#metal)" />
  <rect x="43" y="77" width="2" height="7" rx="1" transform="rotate(45 43 77)" fill="url(#metal)" />
  <rect x="74" y="46" width="2" height="7" rx="1" transform="rotate(45 74 46)" fill="url(#metal)" />
  
  <!-- Screwdriver -->
  <path d="M70 25L85 40" stroke="#94a3b8" stroke-width="3" stroke-linecap="round" />
  <path d="M70 25L85 40" stroke="#cbd5e1" stroke-width="1" stroke-linecap="round" />
  <rect x="68" y="23" width="4" height="4" rx="2" fill="#fb7185" />
  
  <!-- Code Error -->
  <rect x="25" y="33" width="50" height="14" rx="2" fill="#fee2e2" />
  <path d="M30 40L35 35M30 35L35 40" stroke="#f43f5e" stroke-width="1.5" stroke-linecap="round" />
  <rect x="40" y="37" width="30" height="2" rx="1" fill="#f43f5e" opacity="0.7" />
  <rect x="40" y="41" width="20" height="2" rx="1" fill="#f43f5e" opacity="0.5" />
  
  <!-- 3D Effects -->
  <rect x="10" y="10" width="80" height="10" fill="#fb7185" opacity="0.05" />
  <path d="M90 10L95 15V65L90 70H80V65H85V15H15V10H90Z" fill="#f43f5e" opacity="0.1" />
  <path d="M60 80L65 85H55L60 80Z" fill="#f43f5e" opacity="0.2" />
</svg> 