<svg width="100" height="100" viewBox="0 0 100 100" fill="none" xmlns="http://www.w3.org/2000/svg">
  <defs>
    <linearGradient id="grad1" x1="0%" y1="0%" x2="100%" y2="100%">
      <stop offset="0%" style="stop-color:#a78bfa;stop-opacity:1" />
      <stop offset="100%" style="stop-color:#8b5cf6;stop-opacity:1" />
    </linearGradient>
    <filter id="shadow" x="-20%" y="-20%" width="140%" height="140%">
      <feDropShadow dx="0" dy="4" stdDeviation="4" flood-opacity="0.3" />
    </filter>
    <linearGradient id="glass" x1="0%" y1="0%" x2="100%" y2="100%">
      <stop offset="0%" style="stop-color:#ffffff;stop-opacity:0.9" />
      <stop offset="100%" style="stop-color:#f8fafc;stop-opacity:0.8" />
    </linearGradient>
  </defs>
  
  <!-- Search Box -->
  <rect x="10" y="15" width="80" height="20" rx="10" fill="#1e293b" filter="url(#shadow)" />
  <rect x="12" y="17" width="76" height="16" rx="8" fill="#334155" />
  <rect x="15" y="20" width="70" height="10" rx="5" fill="#f8fafc" />
  
  <!-- Search Text -->
  <text x="20" y="28" font-family="Arial" font-size="8" fill="#1e293b">search optimization</text>
  
  <!-- Search Icon -->
  <circle cx="75" cy="25" r="5" stroke="#8b5cf6" stroke-width="2" fill="none" />
  <path d="M79 29L85 35" stroke="#8b5cf6" stroke-width="2" stroke-linecap="round" />
  
  <!-- Results Section -->
  <rect x="10" y="40" width="80" height="45" rx="4" fill="#1e293b" filter="url(#shadow)" />
  <rect x="12" y="42" width="76" height="41" rx="3" fill="#334155" />
  
  <!-- Result Cards -->
  <rect x="15" y="45" width="70" height="10" rx="2" fill="#f8fafc" />
  <rect x="17" y="47" width="40" height="3" rx="1.5" fill="#8b5cf6" />
  <rect x="17" y="51" width="30" height="2" rx="1" fill="#64748b" />
  <rect x="60" y="47" width="20" height="6" rx="3" fill="#8b5cf6" opacity="0.2" />
  <text x="65" y="52" font-family="Arial" font-size="5" fill="#8b5cf6">#1</text>
  
  <rect x="15" y="58" width="70" height="10" rx="2" fill="#f8fafc" />
  <rect x="17" y="60" width="40" height="3" rx="1.5" fill="#a78bfa" opacity="0.8" />
  <rect x="17" y="64" width="30" height="2" rx="1" fill="#64748b" />
  <rect x="60" y="60" width="20" height="6" rx="3" fill="#8b5cf6" opacity="0.2" />
  <text x="65" y="65" font-family="Arial" font-size="5" fill="#8b5cf6">#2</text>
  
  <rect x="15" y="71" width="70" height="10" rx="2" fill="#f8fafc" />
  <rect x="17" y="73" width="40" height="3" rx="1.5" fill="#a78bfa" opacity="0.6" />
  <rect x="17" y="77" width="30" height="2" rx="1" fill="#64748b" />
  <rect x="60" y="73" width="20" height="6" rx="3" fill="#8b5cf6" opacity="0.2" />
  <text x="65" y="78" font-family="Arial" font-size="5" fill="#8b5cf6">#3</text>
  
  <!-- Analytics Chart -->
  <rect x="55" y="15" width="30" height="20" rx="2" fill="#8b5cf6" opacity="0.1" />
  <path d="M60 30L65 25L70 27L75 20" stroke="#8b5cf6" stroke-width="1.5" stroke-linecap="round" />
  <circle cx="60" cy="30" r="1.5" fill="#8b5cf6" />
  <circle cx="65" cy="25" r="1.5" fill="#8b5cf6" />
  <circle cx="70" cy="27" r="1.5" fill="#8b5cf6" />
  <circle cx="75" cy="20" r="1.5" fill="#8b5cf6" />
  
  <!-- Keywords Cloud -->
  <ellipse cx="30" cy="25" rx="15" ry="10" fill="#8b5cf6" opacity="0.1" />
  <text x="20" y="23" font-family="Arial" font-size="4" fill="#8b5cf6">SEO</text>
  <text x="30" y="27" font-family="Arial" font-size="3" fill="#8b5cf6">keywords</text>
  <text x="25" y="30" font-family="Arial" font-size="2.5" fill="#8b5cf6">ranking</text>
  
  <!-- 3D Elements -->
  <path d="M85 40C88 40 90 42 90 45V85C90 88 88 90 85 90H15C12 90 10 88 10 85V45C10 42 12 40 15 40H85Z" fill="#a78bfa" opacity="0.05" />
  <path d="M85 15C88 15 90 17 90 20V35C90 38 88 40 85 40H15C12 40 10 38 10 35V20C10 17 12 15 15 15H85Z" fill="#a78bfa" opacity="0.05" />
  
  <!-- Graph Trending Up -->
  <path d="M90 50L95 45L95 90L90 95H75V90H90V50Z" fill="#8b5cf6" opacity="0.2" />
  <path d="M90 45V40H85" stroke="#8b5cf6" stroke-width="1" opacity="0.5" />
</svg> 