<svg width="100" height="100" viewBox="0 0 100 100" fill="none" xmlns="http://www.w3.org/2000/svg">
  <defs>
    <linearGradient id="grad1" x1="0%" y1="0%" x2="100%" y2="100%">
      <stop offset="0%" style="stop-color:#4ade80;stop-opacity:1" />
      <stop offset="100%" style="stop-color:#2dd4bf;stop-opacity:1" />
    </linearGradient>
    <linearGradient id="screen" x1="0%" y1="0%" x2="100%" y2="100%">
      <stop offset="0%" style="stop-color:#ffffff;stop-opacity:1" />
      <stop offset="100%" style="stop-color:#f8fafc;stop-opacity:1" />
    </linearGradient>
    <filter id="shadow" x="-20%" y="-20%" width="140%" height="140%">
      <feDropShadow dx="0" dy="4" stdDeviation="4" flood-opacity="0.3" />
    </filter>
  </defs>
  
  <!-- Monitor Base -->
  <rect x="10" y="10" width="80" height="55" rx="4" fill="#1e293b" filter="url(#shadow)" />
  <rect x="12" y="12" width="76" height="51" rx="3" fill="#334155" />
  
  <!-- Screen -->
  <rect x="15" y="15" width="70" height="42" rx="1" fill="url(#screen)" />
  
  <!-- Website Layout Elements -->
  <!-- Header -->
  <rect x="15" y="15" width="70" height="8" rx="1" fill="#4ade80" opacity="0.9" />
  <rect x="18" y="17" width="20" height="4" rx="1" fill="#ffffff" />
  <rect x="58" y="17" width="5" height="4" rx="1" fill="#ffffff" />
  <rect x="68" y="17" width="5" height="4" rx="1" fill="#ffffff" />
  <rect x="78" y="17" width="5" height="4" rx="1" fill="#ffffff" />
  
  <!-- Hero Section -->
  <rect x="15" y="25" width="70" height="15" rx="1" fill="#e2e8f0" />
  <rect x="20" y="28" width="25" height="3" rx="1" fill="#1e293b" />
  <rect x="20" y="33" width="35" height="2" rx="1" fill="#64748b" />
  <rect x="20" y="37" width="15" height="3" rx="1.5" fill="#4ade80" />
  <rect x="55" y="27" width="25" height="12" rx="1" fill="#2dd4bf" opacity="0.6" />
  
  <!-- Content Section -->
  <rect x="15" y="42" width="22" height="15" rx="1" fill="#f8fafc" />
  <rect x="17" y="44" width="18" height="2" rx="1" fill="#1e293b" />
  <rect x="17" y="48" width="15" height="1" rx="0.5" fill="#64748b" />
  <rect x="17" y="51" width="15" height="1" rx="0.5" fill="#64748b" />
  <rect x="17" y="54" width="10" height="1" rx="0.5" fill="#64748b" />
  
  <rect x="39" y="42" width="22" height="15" rx="1" fill="#f8fafc" />
  <rect x="41" y="44" width="18" height="2" rx="1" fill="#1e293b" />
  <rect x="41" y="48" width="15" height="1" rx="0.5" fill="#64748b" />
  <rect x="41" y="51" width="15" height="1" rx="0.5" fill="#64748b" />
  <rect x="41" y="54" width="10" height="1" rx="0.5" fill="#64748b" />
  
  <rect x="63" y="42" width="22" height="15" rx="1" fill="#f8fafc" />
  <rect x="65" y="44" width="18" height="2" rx="1" fill="#1e293b" />
  <rect x="65" y="48" width="15" height="1" rx="0.5" fill="#64748b" />
  <rect x="65" y="51" width="15" height="1" rx="0.5" fill="#64748b" />
  <rect x="65" y="54" width="10" height="1" rx="0.5" fill="#64748b" />
  
  <!-- Monitor Stand -->
  <path d="M45 65L35 80H65L55 65H45Z" fill="#1e293b" filter="url(#shadow)" />
  <rect x="40" y="80" width="20" height="5" rx="2" fill="#1e293b" filter="url(#shadow)" />
  
  <!-- Cursor -->
  <path d="M55 30L58 33L55 36L55 30Z" fill="#1e293b" />
  
  <!-- 3D Effect - Reflection -->
  <rect x="15" y="15" width="70" height="20" rx="1" fill="url(#grad1)" opacity="0.05" />
  
  <!-- Code Elements -->
  <rect x="20" y="60" width="8" height="2" rx="1" fill="#3b82f6" opacity="0.8" />
  <rect x="30" y="60" width="12" height="2" rx="1" fill="#8b5cf6" opacity="0.8" />
  <rect x="44" y="60" width="6" height="2" rx="1" fill="#ec4899" opacity="0.8" />
  <rect x="52" y="60" width="10" height="2" rx="1" fill="#f59e0b" opacity="0.8" />
  <rect x="64" y="60" width="8" height="2" rx="1" fill="#10b981" opacity="0.8" />
  <rect x="74" y="60" width="5" height="2" rx="1" fill="#6366f1" opacity="0.8" />
</svg> 